<?xml version="1.0" standalone="no"?>
<!DOCTYPE svg PUBLIC "-//W3C//DTD SVG 20010904//EN"
 "http://www.w3.org/TR/2001/REC-SVG-20010904/DTD/svg10.dtd">
<svg version="1.0" xmlns="http://www.w3.org/2000/svg"
 width="400.000000pt" height="624.000000pt" viewBox="0 0 400.000000 624.000000"
 preserveAspectRatio="xMidYMid meet">

<g transform="translate(0.000000,624.000000) scale(0.100000,-0.100000)"
fill="#000000" stroke="none">
<path d="M1402 6213 c-6 -2 -10 -9 -7 -14 4 -5 -1 -6 -9 -3 -8 3 -27 -1 -43
-9 -15 -8 -44 -18 -63 -22 -19 -4 -43 -15 -54 -24 -14 -12 -34 -15 -83 -13
-42 2 -62 -1 -58 -8 3 -5 0 -8 -7 -5 -7 3 -33 -13 -58 -36 -25 -23 -37 -36
-27 -29 12 9 17 9 17 1 0 -11 -13 -15 -37 -12 -6 1 -14 -8 -18 -19 -8 -25 -64
-82 -75 -75 -7 4 -47 -33 -42 -41 7 -12 0 -24 -14 -24 -8 0 -13 -4 -9 -9 3 -5
-4 -16 -15 -24 -11 -7 -26 -29 -34 -48 -8 -19 -24 -43 -36 -54 -11 -10 -18
-25 -15 -32 2 -8 0 -11 -5 -8 -6 3 -10 3 -11 -2 0 -4 -2 -24 -3 -43 -2 -19 -7
-75 -11 -125 -4 -49 -13 -101 -19 -115 -7 -14 -12 -29 -11 -35 6 -43 19 -92
27 -102 6 -7 14 -29 20 -50 5 -21 14 -56 19 -78 6 -22 14 -44 20 -50 5 -5 9
-24 9 -43 0 -22 4 -31 12 -26 7 5 8 3 3 -5 -4 -8 5 -30 24 -56 17 -24 31 -50
31 -59 0 -9 5 -16 10 -16 6 0 10 -6 10 -14 0 -8 7 -22 16 -30 8 -9 12 -21 8
-27 -4 -8 -3 -9 4 -5 7 4 12 3 12 -3 0 -17 32 -42 46 -37 8 3 14 1 14 -4 0 -6
5 -10 12 -10 6 0 -1 13 -16 29 -16 16 -25 34 -22 40 4 6 3 11 -3 11 -6 0 -8 7
-5 15 4 8 -1 26 -10 40 -27 42 -18 83 12 53 9 -9 12 -9 13 2 1 8 0 20 -1 25
-1 6 -4 24 -6 40 -2 17 -9 55 -15 85 -6 30 -15 88 -19 130 -4 41 -11 87 -14
101 -4 20 3 40 31 83 21 31 45 59 55 62 10 3 24 12 32 20 18 17 104 35 112 23
3 -5 17 -9 32 -9 15 0 37 -7 48 -15 12 -8 24 -12 27 -9 2 3 14 -6 25 -20 14
-19 29 -26 55 -26 21 0 37 -6 40 -14 3 -8 27 -17 56 -21 35 -5 49 -11 44 -18
-4 -7 0 -7 9 1 11 9 18 10 23 2 3 -5 22 -10 41 -10 19 0 33 -4 29 -9 -4 -7
178 -21 193 -15 12 5 -94 44 -106 39 -9 -3 -13 -3 -9 1 4 4 -5 16 -20 26 l-28
19 47 -3 c25 -2 44 -5 42 -7 -6 -6 17 -31 28 -31 6 0 5 7 -2 15 -18 21 -6 30
14 10 9 -10 16 -12 16 -5 0 7 8 9 21 5 14 -5 19 -3 15 3 -7 12 10 25 36 29 10
2 21 3 25 4 19 3 46 -2 40 -7 -3 -4 -2 -14 3 -24 5 -9 11 -28 13 -41 3 -14 10
-42 15 -64 6 -22 16 -66 22 -98 6 -31 15 -55 20 -52 21 13 43 -52 27 -81 -9
-17 -9 -18 6 -5 15 12 17 11 17 -13 0 -27 19 -37 21 -11 1 15 4 28 9 43 1 4 2
12 1 17 -1 6 5 1 14 -9 8 -10 12 -22 10 -27 -3 -4 -1 -9 3 -11 5 -1 6 -22 4
-45 -2 -24 -7 -41 -11 -39 -6 4 -10 -11 -13 -51 -1 -7 -6 -13 -11 -13 -6 0 -8
-3 -5 -6 16 -15 48 22 73 83 15 38 33 72 41 76 19 11 18 63 -1 71 -22 8 -18
32 8 53 21 16 24 26 21 73 -1 31 3 61 9 69 10 12 9 13 -3 6 -12 -7 -13 -6 -4
6 9 12 11 33 4 42 -4 5 -10 56 -14 122 -2 40 -8 71 -15 73 -6 2 -9 8 -6 12 3
5 -3 35 -14 66 -11 31 -19 60 -16 64 9 14 -28 96 -63 141 -20 27 -45 60 -55
74 -19 26 -105 75 -133 75 -18 0 -105 90 -98 102 7 11 -35 30 -52 24 -9 -3
-12 -1 -9 4 3 6 1 10 -6 10 -7 0 -21 8 -32 17 -15 14 -39 18 -111 20 -50 0
-97 -1 -104 -4z m282 -109 c9 -3 13 -10 10 -15 -3 -5 -13 -5 -23 1 -10 5 -21
6 -25 3 -3 -3 -6 -1 -6 5 0 13 19 15 44 6z m-607 -20 c-3 -3 -12 -4 -19 -1 -8
3 -5 6 6 6 11 1 17 -2 13 -5z m188 -604 c-3 -4 1 -11 7 -13 9 -4 7 -6 -3 -6
-9 -1 -22 6 -29 14 -11 13 -10 14 5 9 14 -6 16 -4 10 6 -5 9 -4 11 4 6 6 -4 9
-11 6 -16z m110 -40 c4 -6 10 -8 14 -6 4 3 13 0 21 -6 11 -7 5 -8 -20 -3 -19
4 -41 7 -47 8 -7 0 -13 4 -13 9 0 12 38 10 45 -2z"/>
<path d="M1715 5274 l-30 -12 30 -5 c20 -2 12 -5 -22 -6 -29 0 -53 -5 -53 -11
0 -5 -3 -9 -7 -8 -5 1 -21 -4 -36 -10 -16 -7 -35 -12 -42 -12 -27 0 -63 -22
-58 -36 3 -8 9 -11 14 -8 5 3 8 0 7 -7 -2 -6 8 -13 22 -14 30 -4 148 33 172
53 10 8 26 12 37 9 11 -3 21 -1 23 4 2 5 14 10 27 12 36 5 36 20 0 41 -18 10
-29 14 -25 7 10 -15 0 -14 -16 2 -10 11 -19 11 -43 1z"/>
<path d="M1482 5150 c0 -14 2 -19 5 -12 2 6 2 18 0 25 -3 6 -5 1 -5 -13z"/>
<path d="M981 5130 c-13 -3 -31 -16 -40 -29 -15 -24 -15 -24 17 -19 18 2 32 1
32 -4 0 -4 21 -7 48 -7 26 1 70 1 97 0 28 -1 59 1 70 3 11 3 25 5 30 6 6 1 1
5 -10 10 -17 7 -17 9 -2 9 22 1 22 20 1 28 -22 8 -130 10 -176 2 -21 -3 -39
-3 -40 1 -2 3 -14 4 -27 0z"/>
<path d="M1610 5128 c-45 -12 -90 -55 -90 -85 0 -23 2 -23 73 -17 39 3 91 14
113 24 23 11 54 22 68 26 35 8 43 24 14 25 -13 1 -26 1 -30 0 -4 0 -19 6 -35
14 l-28 15 28 0 c16 0 38 -5 50 -11 21 -10 21 -10 3 5 -23 18 -110 20 -166 4z
m114 -37 c7 -11 -14 -27 -33 -27 -8 1 -16 7 -19 14 -2 7 2 10 12 6 9 -3 16 -1
16 5 0 13 17 15 24 2z m-97 -23 c-3 -8 -6 -5 -6 6 -1 11 2 17 5 13 3 -3 4 -12
1 -19z m-18 -11 c13 -16 11 -17 -17 -15 -29 2 -30 3 -15 20 9 10 17 17 17 16
1 -2 8 -11 15 -21z"/>
<path d="M1115 5040 c-20 -5 -23 -8 -10 -9 17 -1 15 -4 -9 -16 -21 -11 -32
-12 -42 -4 -14 12 -34 4 -34 -13 0 -7 4 -7 13 1 27 21 25 -1 -1 -24 l-27 -23
38 0 c29 0 37 4 33 14 -3 7 4 18 14 24 20 11 23 5 23 -35 0 -11 61 -11 102 -1
15 4 25 14 25 24 0 15 2 15 10 2 6 -9 10 -10 10 -3 0 6 -5 15 -10 18 -6 4 -8
10 -5 15 5 8 -67 41 -88 39 -6 -1 -25 -5 -42 -9z m25 -50 c0 -5 -4 -10 -10
-10 -5 0 -10 5 -10 10 0 6 5 10 10 10 6 0 10 -4 10 -10z"/>
<path d="M1972 5025 c0 -16 2 -22 5 -12 2 9 2 23 0 30 -3 6 -5 -1 -5 -18z"/>
<path d="M2131 4953 c8 -9 9 -14 3 -10 -6 3 -28 -9 -49 -28 -21 -19 -45 -35
-54 -34 -12 0 -11 2 4 9 16 7 17 9 3 9 -9 1 -23 4 -32 7 -13 5 -16 -1 -16 -32
0 -26 3 -34 9 -25 5 7 11 9 14 4 4 -5 20 -8 36 -5 18 2 28 9 24 15 -4 7 0 8
12 3 13 -4 26 3 46 26 34 37 34 41 13 62 -21 21 -30 20 -13 -1z m-21 -73 c0
-5 -7 -7 -15 -4 -8 4 -15 8 -15 10 0 2 7 4 15 4 8 0 15 -4 15 -10z"/>
<path d="M1993 4815 c-3 -9 -3 -19 1 -22 3 -4 6 1 6 10 0 8 10 18 23 20 l22 4
-23 2 c-12 0 -25 -6 -29 -14z"/>
<path d="M2008 4783 c-14 -17 -24 -123 -12 -123 3 0 14 10 25 23 20 24 26 52
8 41 -8 -5 -8 -1 0 14 13 24 15 62 3 62 -5 0 -16 -8 -24 -17z"/>
<path d="M1821 4684 c0 -11 3 -14 6 -6 3 7 2 16 -1 19 -3 4 -6 -2 -5 -13z"/>
<path d="M1166 4652 l-19 -27 26 24 c28 26 32 31 20 31 -5 0 -17 -13 -27 -28z"/>
<path d="M1126 4605 c-3 -9 -6 -22 -5 -28 0 -7 5 -1 10 12 5 13 8 26 5 28 -2
2 -6 -3 -10 -12z"/>
<path d="M1702 4608 c-13 -7 -26 -24 -29 -39 -3 -15 -11 -30 -19 -33 -8 -3
-14 -11 -14 -17 0 -18 -48 -59 -53 -46 -3 8 -14 3 -28 -12 l-24 -23 24 7 c17
5 21 4 16 -5 -11 -19 37 10 76 45 37 33 109 118 109 129 0 9 -32 6 -58 -6z"/>
<path d="M1225 4530 c-3 -5 20 -25 51 -45 32 -20 64 -43 71 -51 33 -33 25 7
-9 43 -14 16 -28 36 -31 46 -7 19 -71 25 -82 7z"/>
<path d="M2122 4156 c43 -39 53 -70 44 -132 -11 -81 -53 -139 -108 -149 -14
-3 -18 0 -14 10 3 8 1 15 -4 15 -6 0 -10 -4 -10 -10 0 -5 -5 -10 -11 -10 -5 0
-7 5 -4 10 6 9 0 11 -22 9 -5 0 -7 -6 -6 -13 3 -15 -39 -16 -49 -2 -5 7 -8 6
-9 -4 -1 -8 -3 -19 -4 -25 -2 -5 -3 -16 -4 -23 -1 -8 -6 -10 -13 -6 -8 5 -8 2
1 -10 11 -13 11 -16 2 -14 -21 5 -21 -32 0 -53 10 -10 19 -14 19 -8 0 7 10 9
24 7 14 -3 31 -1 38 4 9 7 7 8 -7 3 -16 -5 -18 -4 -7 7 9 9 19 10 41 1 24 -9
32 -8 47 6 12 11 10 5 -6 -24 -39 -67 -59 -95 -180 -245 -64 -80 -122 -155
-129 -168 -7 -13 -17 -22 -22 -20 -5 2 -62 53 -126 113 -126 119 -216 221
-208 235 3 4 -19 28 -47 51 -150 123 -216 238 -178 310 12 22 2 25 -25 5 -10
-7 -26 -11 -35 -9 -24 6 -67 -32 -73 -66 -8 -39 -41 -73 -56 -58 -8 8 -11 3
-11 -17 0 -21 -4 -27 -15 -22 -8 3 -15 1 -15 -4 0 -6 -9 -10 -20 -10 -11 0
-23 -7 -26 -15 -4 -8 -11 -15 -18 -15 -19 0 -86 -37 -79 -44 4 -3 -3 -6 -15
-6 -15 0 -20 -5 -16 -15 4 -10 0 -13 -15 -10 -11 2 -23 0 -26 -6 -4 -5 -11 -9
-16 -9 -6 0 -7 5 -4 11 10 14 -42 5 -79 -14 -16 -9 -35 -13 -44 -10 -10 4 -13
2 -8 -5 4 -8 2 -10 -7 -6 -8 3 -18 1 -22 -5 -3 -6 -20 -11 -36 -11 -31 0 -79
-25 -79 -42 0 -5 5 -6 12 -2 7 4 8 3 4 -5 -4 -6 -12 -9 -17 -6 -5 4 -9 -1 -9
-9 0 -9 -5 -16 -11 -16 -5 0 -7 5 -3 12 9 15 -22 -7 -70 -50 -21 -18 -34 -37
-30 -44 4 -6 3 -8 -4 -4 -9 5 -59 -51 -56 -64 1 -3 -3 -16 -8 -30 -5 -13 -10
-36 -11 -51 -1 -15 -6 -25 -11 -21 -5 3 -7 -2 -3 -11 3 -10 2 -17 -3 -17 -6 0
-10 -14 -10 -31 0 -17 -4 -28 -10 -24 -5 3 -10 1 -10 -4 0 -6 5 -11 12 -11 7
0 6 -5 -4 -12 -20 -17 -30 -82 -15 -98 9 -10 9 -11 0 -6 -7 4 -13 2 -13 -4 0
-6 -5 -8 -10 -5 -7 4 -9 -3 -6 -19 3 -17 1 -24 -6 -20 -7 4 -9 -5 -6 -29 2
-20 1 -34 -2 -32 -6 4 -10 -24 -14 -102 0 -18 -4 -33 -7 -33 -3 0 -6 -13 -7
-30 0 -16 2 -30 6 -30 4 0 7 -14 8 -30 1 -17 -3 -30 -8 -30 -5 0 -7 4 -3 9 3
5 0 13 -6 17 -12 7 -8 -167 6 -216 5 -17 4 -21 -3 -12 -13 19 -25 -47 -16 -83
4 -15 1 -44 -6 -64 -10 -31 -9 -48 3 -95 8 -31 10 -59 6 -62 -14 -8 -11 -44 4
-44 7 0 8 -3 2 -8 -5 -4 -11 -23 -13 -42 -1 -19 -12 -44 -22 -55 -24 -25 -26
-77 -5 -95 22 -18 18 -44 -10 -78 -30 -36 -30 -36 -4 -71 12 -16 18 -34 15
-40 -7 -10 -11 -33 -20 -122 -3 -24 -8 -54 -12 -66 -4 -14 -2 -23 5 -23 6 0
11 5 11 10 0 6 22 33 48 60 43 44 54 50 90 50 47 0 74 -8 66 -21 -3 -5 0 -9 7
-9 8 0 7 -5 -2 -16 -12 -15 -11 -16 11 -9 23 7 24 7 10 -10 -8 -11 -10 -16 -4
-12 7 4 16 -9 23 -34 9 -29 16 -39 27 -35 9 4 12 2 8 -5 -3 -6 7 -23 23 -37
27 -26 33 -34 33 -48 0 -4 6 -1 13 5 18 14 27 4 27 -28 0 -21 -2 -23 -10 -11
-8 12 -10 9 -7 -10 6 -39 25 -80 38 -80 7 0 9 -3 6 -7 -4 -3 6 -13 21 -21 32
-18 149 -17 170 1 17 13 82 114 82 126 0 4 9 16 20 26 23 21 24 77 2 81 -7 1
-8 0 -2 -3 13 -6 13 -33 -1 -33 -5 0 -7 5 -3 12 4 7 3 8 -5 4 -6 -4 -10 -14
-9 -21 2 -8 -1 -14 -7 -15 -5 -1 -19 -9 -29 -18 -11 -9 -16 -11 -12 -4 4 7 2
12 -6 12 -11 0 -11 2 0 9 10 6 10 10 -3 21 -14 12 -14 15 1 31 10 11 14 22 11
26 -4 3 -7 1 -7 -6 0 -8 -6 -11 -16 -7 -8 3 -12 2 -9 -4 3 -6 1 -10 -5 -10 -8
0 -10 9 -6 26 8 30 -9 55 -31 47 -12 -5 -14 -1 -8 18 l8 24 -21 -25 c-23 -28
-22 -32 10 -35 38 -4 39 -5 33 -15 -4 -6 -10 -8 -15 -5 -5 3 -14 -3 -20 -12
-9 -16 -10 -16 -8 -1 2 10 -12 28 -31 42 -19 15 -29 26 -22 26 7 0 9 5 5 13
-5 8 -2 7 9 -2 10 -8 20 -11 24 -7 3 3 1 6 -5 6 -7 0 -9 12 -7 31 4 33 -17 51
-38 30 -6 -6 -18 -11 -27 -11 -12 1 -12 2 3 11 9 5 17 15 17 22 0 7 -4 6 -10
-3 -5 -8 -10 -13 -11 -10 0 3 -2 13 -4 24 -2 10 -9 24 -16 30 -6 6 -9 6 -6 1
3 -6 -1 -21 -10 -35 -8 -14 -12 -17 -9 -6 4 10 1 25 -5 33 -9 11 -9 17 0 26
10 9 11 8 5 -8 -4 -11 -4 -17 0 -13 4 3 8 12 10 20 3 24 17 38 39 38 15 1 9 6
-18 16 -22 8 -48 15 -57 16 -23 3 -23 7 4 35 12 13 16 23 9 23 -7 0 -9 5 -5
11 4 8 0 8 -15 0 -16 -9 -21 -21 -21 -52 0 -23 -4 -38 -10 -34 -5 3 -6 13 -3
22 5 12 2 15 -10 10 -9 -3 -19 -2 -22 3 -4 6 3 10 14 10 13 0 21 7 21 16 0 13
-3 14 -14 5 -11 -9 -16 -9 -22 0 -4 7 -3 9 3 6 14 -9 23 27 12 44 -7 12 -9 11
-10 -1 0 -10 -3 -8 -9 5 -13 30 -12 35 7 28 15 -6 16 -5 3 9 -8 9 -18 14 -23
11 -4 -2 -7 1 -7 7 0 7 7 10 15 7 8 -4 17 -2 20 3 4 6 0 10 -8 10 -16 0 -30
27 -22 40 3 5 1 11 -5 15 -5 3 -10 1 -10 -4 0 -6 -7 -11 -15 -11 -8 0 -15 5
-15 10 0 6 6 9 12 8 7 -2 14 8 16 21 2 14 0 21 -7 17 -6 -4 -12 7 -15 26 -3
18 -8 49 -12 68 -9 58 -14 450 -5 450 12 0 20 -60 9 -66 -4 -3 -8 -11 -8 -17
0 -8 3 -7 9 2 5 7 14 11 19 7 7 -4 9 1 7 14 -2 11 1 20 6 20 5 0 1 10 -11 22
-14 15 -20 34 -19 62 l2 41 6 -34 c6 -32 7 -33 21 -16 11 14 11 17 1 11 -10
-7 -12 -2 -6 22 7 33 -11 54 -27 31 -7 -10 -8 -7 -4 11 3 14 6 104 6 201 l0
175 37 18 c47 23 150 56 172 56 22 0 75 -55 67 -69 -4 -6 -1 -9 8 -5 9 3 21
-6 32 -26 17 -28 20 -29 31 -13 7 9 13 46 13 82 0 36 3 89 6 117 6 43 11 54
33 64 31 14 182 40 194 33 4 -3 15 -22 23 -43 9 -22 21 -37 31 -36 17 1 28
-22 129 -279 36 -93 75 -177 85 -186 10 -9 28 -43 40 -75 12 -33 25 -63 29
-69 4 -5 16 -35 28 -65 11 -30 39 -98 62 -150 120 -269 250 -609 252 -655 0
-16 -6 -66 -15 -110 -8 -44 -25 -134 -37 -200 -11 -66 -30 -167 -40 -225 -25
-130 -25 -147 -2 -154 22 -7 65 -98 65 -135 -1 -92 -12 -220 -21 -237 -6 -10
-13 -32 -17 -47 -3 -16 -15 -31 -29 -37 -13 -4 -33 -25 -44 -44 -13 -21 -29
-36 -40 -36 -20 0 -31 -39 -40 -153 -1 -10 -6 -16 -10 -13 -5 3 -9 -1 -9 -9 0
-8 5 -12 10 -8 5 3 6 -4 2 -18 -10 -33 -14 -36 -26 -19 -9 13 -10 13 -8 0 1
-8 -1 -27 -5 -42 -6 -21 -15 -28 -32 -28 -13 0 -24 5 -24 11 0 5 -6 7 -12 3
-9 -5 -9 -2 1 9 7 9 9 17 3 17 -13 0 -22 62 -10 75 6 6 7 4 3 -6 -4 -10 -2
-19 3 -23 5 -3 8 5 7 17 -2 12 -7 21 -14 20 -15 -4 -24 41 -17 87 5 34 4 40
-11 39 -21 -1 -63 -17 -48 -18 6 -1 3 -5 -5 -11 -9 -6 -17 -5 -21 1 -4 7 -8 5
-12 -4 -4 -12 0 -14 19 -11 19 4 24 1 18 -8 -9 -14 -14 -31 -18 -63 -2 -14 -9
-19 -24 -17 -12 2 -22 -2 -22 -8 0 -6 4 -9 9 -6 5 3 14 -1 21 -9 9 -11 7 -19
-13 -41 -14 -15 -23 -34 -20 -43 4 -14 3 -14 -6 -1 -6 8 -11 11 -11 6 0 -5 -6
-3 -13 3 -8 6 -17 8 -21 4 -4 -4 0 6 8 22 10 20 12 33 5 41 -7 9 -5 11 8 10
12 -1 17 5 15 17 -2 9 2 17 8 17 5 0 10 8 10 17 0 15 2 14 14 -3 15 -19 15
-19 12 1 -4 31 -30 29 -50 -5 -17 -30 -19 -31 -37 -14 -13 12 -22 14 -31 6
-10 -8 -13 0 -14 35 -1 24 -7 50 -14 56 -10 9 -11 9 -6 0 5 -9 2 -11 -9 -7
-11 5 -13 10 -5 19 8 9 8 15 0 20 -5 3 -10 14 -10 24 0 20 -245 207 -285 217
l-25 6 0 -101 c0 -121 2 -101 -15 -158 -17 -61 -25 -115 -31 -233 -3 -52 -10
-100 -15 -106 -5 -6 -4 -16 4 -24 10 -12 9 -12 -4 -2 -13 10 -20 8 -37 -11
-14 -15 -18 -27 -12 -37 7 -12 12 -11 29 4 21 19 52 16 50 -6 0 -10 -2 -10 -6
0 -4 10 -9 9 -20 -5 -14 -17 -14 -17 -9 2 6 19 5 19 -8 3 -7 -10 -21 -18 -30
-18 -9 0 -16 -7 -16 -15 0 -8 -4 -15 -9 -15 -4 0 -9 -36 -10 -80 l-2 -80 1236
0 c935 0 1234 3 1229 12 -4 6 -6 28 -6 50 1 21 -5 56 -14 78 -9 22 -13 47 -10
57 4 9 9 46 12 82 5 67 14 81 50 81 44 0 527 177 679 249 93 44 116 60 168
117 122 133 177 217 177 269 0 31 -34 115 -101 250 -39 80 -50 113 -54 165 -4
57 -39 167 -59 188 -4 4 -14 22 -22 41 l-14 33 -57 -48 c-32 -27 -64 -56 -71
-64 -11 -13 -12 -11 -6 10 5 22 5 23 -7 8 -13 -15 -15 -15 -33 3 -19 19 -19
19 2 19 12 0 22 6 22 13 0 8 4 7 10 -3 8 -13 10 -12 10 3 0 10 5 15 10 12 6
-4 8 -10 6 -14 -3 -4 1 -8 9 -8 8 0 15 4 15 8 0 14 -24 23 -53 21 -37 -3 -51
6 -36 24 6 8 7 14 2 14 -11 0 -11 30 1 48 13 21 -16 9 -40 -16 -22 -23 -23
-23 -33 -3 -8 14 -8 21 2 25 6 3 0 3 -16 1 -15 -2 -25 0 -22 5 3 5 -4 11 -15
15 -15 5 -19 13 -16 31 3 16 1 22 -6 18 -8 -5 -9 -1 -5 10 4 9 3 14 -2 11 -5
-3 -12 -1 -16 5 -4 6 -10 8 -14 6 -4 -3 -14 5 -20 18 -9 16 -19 22 -36 19 -20
-4 -22 -2 -18 21 3 14 1 26 -5 26 -6 0 -9 8 -7 18 1 9 -2 23 -8 30 -5 7 -7 15
-4 18 9 10 -27 41 -43 37 -12 -3 -12 -2 1 8 15 11 14 15 -9 36 -14 12 -20 23
-13 23 6 0 11 7 11 16 0 12 -3 14 -12 6 -16 -13 -36 6 -32 32 2 11 -2 16 -11
12 -9 -3 -13 2 -12 15 1 22 13 25 20 7 3 -8 6 -6 6 5 1 11 -6 17 -19 17 -11 0
-20 7 -20 15 0 8 -4 15 -10 15 -5 0 -10 9 -10 20 0 11 5 20 10 20 18 0 11 26
-13 48 -13 12 -25 21 -28 20 -2 -2 -3 -1 -2 1 1 2 -4 13 -12 25 -8 11 -15 28
-15 38 0 10 -5 18 -11 18 -6 0 -9 8 -7 18 2 9 -9 29 -23 43 -21 21 -25 30 -16
39 9 10 7 11 -13 5 -14 -4 -22 -4 -18 0 4 4 1 17 -7 28 -11 16 -12 24 -3 34 9
11 8 13 -3 11 -9 -2 -13 4 -11 16 3 17 1 18 -11 7 -13 -10 -16 -7 -22 19 -5
22 -11 30 -22 26 -11 -4 -13 -1 -8 14 4 11 2 20 -4 20 -6 0 -11 6 -11 14 0 8
-4 16 -10 18 -5 2 -11 15 -12 31 -1 15 -6 27 -11 27 -4 0 -6 3 -3 8 2 4 -13
43 -34 86 -22 44 -36 84 -33 89 4 6 1 7 -7 2 -10 -6 -12 -4 -7 9 4 11 3 15 -4
10 -6 -3 -20 3 -32 13 -12 11 -54 41 -93 67 -40 26 -139 111 -221 190 -121
116 -162 149 -218 175 -39 18 -77 36 -85 40 -24 13 -23 54 2 84 27 31 52 34
103 12 113 -48 105 -46 98 -27 -10 28 -20 38 -85 77 -39 25 -63 34 -66 27 -5
-17 -29 -15 -36 4 -10 25 -7 112 4 119 6 3 8 16 5 28 -8 28 20 105 47 134 12
13 31 23 42 23 12 0 59 -25 106 -55 88 -57 169 -100 176 -93 2 3 -39 32 -91
67 -52 34 -95 66 -95 72 0 22 20 47 48 58 36 15 73 2 148 -52 27 -19 74 -49
104 -66 30 -18 64 -37 74 -44 25 -15 66 -54 66 -62 0 -13 37 -54 44 -48 3 3
18 -7 33 -24 16 -16 49 -38 76 -47 54 -20 62 -31 81 -118 29 -127 42 -157 130
-318 23 -41 42 -78 44 -83 1 -4 8 -22 16 -40 7 -19 17 -45 21 -58 4 -13 11
-28 15 -34 4 -5 12 -24 17 -41 6 -17 34 -68 62 -113 29 -45 56 -92 61 -104 5
-12 20 -38 32 -58 13 -20 34 -55 47 -78 14 -22 28 -41 33 -41 4 0 8 -6 8 -14
0 -16 238 -262 245 -254 6 6 -34 129 -46 142 -5 6 -9 25 -9 44 0 36 -19 62
-45 62 -8 0 -19 8 -22 18 -4 9 -16 24 -27 33 -20 16 -20 16 2 44 34 43 29 72
-15 90 -20 9 -42 14 -48 11 -7 -2 -16 20 -24 58 -7 34 -24 76 -38 95 -23 29
-25 40 -20 94 8 84 -17 216 -55 291 -17 34 -34 63 -37 66 -12 9 -29 62 -46
145 -18 92 -52 193 -72 216 -7 8 -13 20 -13 25 0 9 -45 79 -75 119 -8 10 -15
23 -15 28 0 5 -7 6 -16 3 -9 -3 -12 -2 -9 5 4 5 1 16 -5 24 -21 26 -140 78
-175 78 -19 0 -32 3 -30 7 7 11 -34 27 -115 44 -93 20 -288 46 -357 49 -29 1
-55 7 -57 13 -2 6 -18 10 -35 9 -25 -1 -33 3 -37 21 -3 13 -15 26 -25 29 -10
4 -19 11 -19 16 0 5 -35 9 -77 9 l-78 0 37 -34z m-81 -383 c13 -16 12 -17 -3
-4 -10 7 -18 15 -18 17 0 8 8 3 21 -13z m-692 -107 c-3 -3 -11 5 -18 17 -13
21 -12 21 5 5 10 -10 16 -20 13 -22z m-58 1 c-10 -9 -11 -8 -5 6 3 10 9 15 12
12 3 -3 0 -11 -7 -18z m-1024 -929 c-2 -13 -4 -5 -4 17 -1 22 1 32 4 23 2 -10
2 -28 0 -40z m2797 -364 c3 -8 2 -12 -4 -9 -6 3 -10 10 -10 16 0 14 7 11 14
-7z m66 -97 c0 -5 -4 -5 -10 -2 -5 3 -10 14 -10 23 0 15 2 15 10 2 5 -8 10
-19 10 -23z m-2710 -331 c0 -3 -4 -8 -10 -11 -5 -3 -10 -1 -10 4 0 6 5 11 10
11 6 0 10 -2 10 -4z m25 -68 c5 4 4 1 0 -7 -6 -11 -4 -13 10 -7 15 5 16 4 5
-9 -10 -12 -16 -13 -27 -4 -10 9 -13 9 -10 -2 2 -8 2 -11 0 -6 -3 4 -8 5 -12
2 -5 -2 -6 7 -3 21 3 18 8 22 17 14 6 -5 16 -6 20 -2z m102 -160 c2 -18 0 -20
-7 -8 -12 18 -13 30 -2 30 4 0 9 -10 9 -22z m-2 -88 c3 -6 -1 -7 -9 -4 -18 7
-21 14 -7 14 6 0 13 -4 16 -10z m72 -52 c-3 -8 -6 -5 -6 6 -1 11 2 17 5 13 3
-3 4 -12 1 -19z m-242 -28 c3 -5 1 -10 -4 -10 -6 0 -11 5 -11 10 0 6 2 10 4
10 3 0 8 -4 11 -10z m246 -13 c-10 -9 -11 -8 -5 6 3 10 9 15 12 12 3 -3 0 -11
-7 -18z m79 -41 c0 -2 -8 -10 -17 -17 -16 -13 -17 -12 -4 4 13 16 21 21 21 13z
m310 -1020 c0 -7 -6 -13 -13 -13 -7 0 -13 8 -13 18 0 9 6 15 13 12 7 -3 13
-11 13 -17z m303 -61 c-3 -9 -8 -14 -10 -11 -3 3 -2 9 2 15 9 16 15 13 8 -4z
m-233 -51 c0 -8 -19 -13 -24 -6 -3 5 1 9 9 9 8 0 15 -2 15 -3z m-550 -203 c0
-4 -6 -8 -13 -8 -8 0 -14 6 -14 13 0 7 6 10 14 7 7 -3 13 -8 13 -12z m-25 -31
c3 -5 1 -10 -4 -10 -6 0 -11 5 -11 10 0 6 2 10 4 10 3 0 8 -4 11 -10z"/>
<path d="M2195 3792 c19 -7 52 -26 105 -62 14 -9 36 -22 50 -29 19 -9 17 -5
-10 18 -19 17 -38 31 -42 31 -4 0 -24 11 -44 25 -20 14 -46 25 -58 24 -20 -1
-20 -1 -1 -7z"/>
<path d="M575 3156 c10 -14 19 -26 22 -26 7 0 -17 39 -28 46 -6 3 -3 -5 6 -20z"/>
<path d="M609 3102 c6 -12 16 -24 22 -28 8 -4 8 -1 0 14 -6 12 -16 24 -22 28
-8 4 -8 1 0 -14z"/>
<path d="M640 3056 c0 -4 13 -27 29 -50 21 -29 27 -47 20 -57 -5 -8 -9 -18 -9
-24 1 -5 5 -2 11 8 6 9 14 15 18 13 12 -8 12 55 0 70 -15 19 -33 18 -25 -2 3
-8 2 -12 -4 -9 -6 3 -10 12 -10 19 0 8 -7 19 -15 26 -8 7 -15 9 -15 6z m70
-68 c0 -16 -3 -19 -11 -11 -6 6 -8 16 -5 22 11 17 16 13 16 -11z"/>
<path d="M667 2893 c-4 -3 -7 -11 -7 -17 0 -6 5 -5 12 2 6 6 9 14 7 17 -3 3
-9 2 -12 -2z"/>
<path d="M760 2865 c0 -4 9 -18 20 -32 11 -14 20 -22 20 -18 0 4 -9 18 -20 32
-11 14 -20 22 -20 18z"/>
<path d="M840 2831 c-8 -6 -18 -7 -24 -4 -5 3 -6 1 -2 -5 5 -9 13 -9 27 -2 10
6 19 13 19 15 0 7 -3 6 -20 -4z"/>
<path d="M604 2762 c-17 -31 -30 -65 -28 -74 1 -10 -1 -18 -5 -18 -4 0 -6 -13
-3 -30 2 -16 9 -30 16 -30 6 0 5 -4 -3 -9 -10 -7 -7 -16 18 -41 17 -18 31 -28
31 -22 0 6 -7 15 -16 20 -9 5 -17 23 -17 40 -1 16 -6 28 -11 25 -17 -11 3 86
29 137 36 71 27 73 -11 2z"/>
<path d="M836 2801 c-4 -5 3 -7 14 -4 23 6 26 13 6 13 -8 0 -17 -4 -20 -9z"/>
<path d="M862 2750 c12 -16 27 -30 32 -30 7 0 7 3 0 8 -6 4 -14 17 -18 30 -4
12 -14 22 -22 22 -11 0 -9 -7 8 -30z"/>
<path d="M849 2725 c7 -11 19 -32 29 -47 48 -77 120 -190 157 -248 23 -36 58
-93 79 -127 21 -35 39 -63 41 -63 9 0 -76 148 -122 214 -18 26 -33 50 -33 54
0 5 -7 17 -15 27 -30 39 -65 96 -65 105 0 6 -4 10 -9 10 -5 0 -12 8 -16 18 -3
9 -17 31 -31 47 -14 17 -21 21 -15 10z"/>
<path d="M905 2690 c20 -27 60 -36 50 -12 -3 7 -5 15 -5 18 0 2 -7 1 -15 -2
-8 -4 -23 0 -32 7 -14 11 -13 9 2 -11z"/>
<path d="M2933 2652 c0 -12 5 -22 9 -22 11 0 10 12 -2 30 -7 12 -9 10 -7 -8z"/>
<path d="M945 2630 c3 -5 15 -10 26 -10 10 0 19 5 19 10 0 6 -12 10 -26 10
-14 0 -23 -4 -19 -10z"/>
<path d="M305 2591 c-3 -12 -10 -19 -15 -16 -5 3 -12 0 -16 -7 -4 -7 -4 -10 1
-6 4 4 14 0 22 -10 7 -9 12 -12 11 -7 -1 6 2 20 6 33 4 13 6 26 3 29 -3 2 -8
-5 -12 -16z"/>
<path d="M971 2588 c12 -23 26 -31 34 -18 3 5 1 10 -5 10 -7 0 -10 6 -7 13 3
7 -3 13 -13 13 -14 0 -16 -4 -9 -18z"/>
<path d="M1012 2551 c-11 -7 -11 -9 2 -14 10 -4 16 -1 16 8 0 17 -1 17 -18 6z"/>
<path d="M1030 2500 c13 -24 17 -25 17 -5 0 8 -6 16 -14 19 -11 4 -11 1 -3
-14z"/>
<path d="M1085 2410 c3 -5 8 -10 11 -10 2 0 4 5 4 10 0 6 -5 10 -11 10 -5 0
-7 -4 -4 -10z"/>
<path d="M336 2372 c-3 -5 1 -9 9 -9 8 0 15 4 15 9 0 4 -4 8 -9 8 -6 0 -12 -4
-15 -8z"/>
<path d="M391 2294 c0 -11 3 -14 6 -6 3 7 2 16 -1 19 -3 4 -6 -2 -5 -13z"/>
<path d="M3164 2222 c-1 -15 1 -21 3 -14 3 6 9 9 15 6 6 -4 5 2 -1 15 -15 27
-16 27 -17 -7z"/>
<path d="M1160 2221 c0 -6 4 -13 10 -16 6 -3 7 1 4 9 -7 18 -14 21 -14 7z"/>
<path d="M403 2195 c0 -8 4 -12 9 -9 5 3 6 10 3 15 -9 13 -12 11 -12 -6z"/>
<path d="M461 2158 c-13 -20 -12 -22 1 -11 8 7 18 10 22 6 4 -4 4 0 0 10 -8
21 -6 21 -23 -5z"/>
<path d="M3211 2146 c-8 -9 -8 -16 -2 -20 5 -4 12 -2 16 4 3 5 3 10 -2 10 -4
0 -1 5 7 10 8 5 10 10 4 10 -6 0 -17 -6 -23 -14z"/>
<path d="M337 2122 c3 -12 10 -19 16 -15 7 4 8 0 3 -13 -6 -15 -5 -17 6 -6 10
10 8 16 -9 34 l-22 21 6 -21z"/>
<path d="M426 2103 c-4 -13 -12 -23 -17 -23 -5 0 -9 -5 -9 -12 0 -7 9 -3 21 9
12 11 19 27 17 34 -3 9 -7 6 -12 -8z"/>
<path d="M430 1911 c0 -5 11 -8 25 -8 13 0 22 3 19 8 -3 5 -14 9 -25 9 -10 0
-19 -4 -19 -9z"/>
<path d="M474 1838 c-11 -17 6 -22 22 -7 13 14 13 16 -1 16 -9 0 -18 -4 -21
-9z"/>
<path d="M499 1818 c-8 -28 -5 -36 13 -33 30 6 35 15 9 15 -12 0 -19 4 -16 10
3 6 4 10 1 10 -3 0 -6 -1 -7 -2z"/>
<path d="M1352 1785 c-7 -14 -12 -32 -12 -40 0 -8 -4 -15 -10 -15 -5 0 -10 -8
-10 -17 0 -12 -3 -14 -8 -6 -5 8 -12 8 -26 -3 -18 -12 -15 -19 7 -15 4 0 7 -3
7 -9 0 -5 5 -10 12 -10 6 0 8 3 5 7 -4 3 6 14 22 24 29 18 43 59 31 94 -5 14
-8 13 -18 -10z"/>
<path d="M520 1770 c0 -5 10 -10 23 -10 18 0 19 2 7 10 -19 13 -30 13 -30 0z"/>
<path d="M594 1733 c-10 -7 -13 -13 -7 -13 7 0 15 5 18 10 4 6 10 8 15 5 5 -3
11 -2 14 3 8 13 -19 10 -40 -5z"/>
<path d="M960 1729 c0 -5 5 -7 10 -4 6 3 10 8 10 11 0 2 -4 4 -10 4 -5 0 -10
-5 -10 -11z"/>
<path d="M980 1725 c-7 -8 -17 -12 -24 -8 -21 13 -38 13 -27 -1 13 -16 12
-194 -2 -221 -5 -11 -19 -30 -30 -42 -15 -17 -18 -30 -14 -55 6 -29 5 -31 -7
-15 -11 14 -15 15 -19 3 -5 -12 48 -92 87 -132 18 -18 20 -30 6 -39 -5 -3 2
-17 16 -32 37 -37 203 -91 285 -93 35 -1 66 -1 69 0 3 1 13 3 23 5 30 6 31 13
3 26 -14 7 -26 16 -26 21 0 4 -7 8 -15 8 -8 0 -15 4 -15 10 0 5 6 7 14 4 8 -3
17 0 21 6 3 6 3 10 -2 9 -20 -3 -27 2 -13 11 13 9 13 10 0 10 -14 0 -14 9 -1
90 8 49 13 92 9 95 -11 11 -39 -7 -29 -19 6 -8 2 -11 -13 -11 -20 0 -22 3 -13
22 5 12 15 19 21 17 29 -11 43 23 58 136 19 138 20 162 7 158 -6 -2 -10 -7 -9
-12 1 -5 -4 -13 -12 -18 -10 -7 -9 -8 5 -4 9 3 17 2 17 -3 0 -5 -9 -11 -20
-14 -13 -3 -24 3 -35 19 -16 24 -35 32 -35 14 0 -5 8 -10 18 -10 16 -1 16 -2
-1 -14 -12 -9 -14 -16 -7 -21 5 -3 8 -11 4 -16 -3 -5 -9 -7 -13 -5 -4 3 -8 0
-8 -7 -1 -7 -3 -36 -6 -65 -3 -30 -2 -50 4 -47 5 3 6 -1 3 -9 -3 -9 -11 -13
-18 -9 -6 3 -5 0 2 -8 11 -12 14 -12 22 1 7 10 10 11 10 2 0 -7 -11 -18 -25
-24 -28 -12 -34 -45 -10 -55 14 -5 14 -8 1 -28 -15 -23 -15 -23 12 -16 23 7
28 5 28 -10 0 -20 -12 -26 -18 -8 -2 7 -11 7 -28 0 -18 -7 -20 -10 -7 -10 9
-1 17 -5 17 -11 0 -5 7 -10 15 -10 9 0 12 -6 8 -15 -3 -9 3 -26 13 -38 16 -19
15 -19 -9 2 -17 16 -27 20 -27 11 0 -7 -3 -10 -6 -7 -4 4 -1 13 5 21 8 9 8 16
2 20 -17 11 -33 -31 -21 -54 9 -16 8 -19 -6 -13 -13 5 -15 3 -9 -7 5 -8 4 -11
-3 -6 -7 4 -7 17 -1 41 9 31 7 38 -17 60 -21 19 -23 26 -12 30 17 7 17 37 1
57 -6 7 -13 22 -16 33 -5 16 -6 15 -5 -5 0 -14 -1 -28 -2 -32 -1 -5 -3 -16 -5
-25 -1 -10 -5 -26 -9 -35 -4 -9 -5 -21 -2 -27 4 -5 2 -12 -4 -16 -11 -7 -9
-55 3 -55 4 0 2 -6 -5 -14 -16 -17 -38 -9 -38 14 0 11 -5 22 -10 25 -8 5 -8
11 -1 19 6 7 9 30 6 52 -2 21 -4 43 -4 48 -1 4 -8 6 -16 2 -9 -3 -15 0 -15 9
0 9 6 12 15 8 17 -6 17 17 0 29 -6 5 -5 8 3 8 7 0 10 5 7 11 -4 6 -13 8 -21 5
-7 -3 -16 -1 -19 5 -4 5 -3 9 2 8 4 -1 18 2 30 6 21 7 21 7 2 26 -19 19 -16
47 5 61 6 4 7 10 3 14 -3 4 -13 1 -22 -6 -12 -10 -15 -10 -15 4 0 9 7 16 15
16 8 0 15 4 15 9 0 5 -10 7 -22 4 -17 -3 -19 -2 -10 5 11 7 11 10 -3 16 -11 4
-14 12 -10 26 5 14 2 20 -10 20 -9 0 -14 4 -10 9 3 5 1 12 -5 16 -5 3 -7 17
-4 31 7 27 2 31 -16 9z m360 -117 c0 -5 -6 -6 -12 -2 -9 5 -9 2 1 -9 9 -11 10
-17 2 -17 -22 0 -26 2 -23 13 2 5 -2 13 -9 17 -6 4 0 8 15 8 14 0 26 -5 26
-10z m-35 -60 c3 -3 -3 -8 -13 -10 -11 -3 -19 0 -19 7 0 13 21 14 32 3z m0
-68 c-3 -4 -2 -10 2 -13 5 -2 3 -2 -4 -1 -6 2 -14 -2 -17 -9 -2 -7 -5 -4 -5 6
-1 9 4 17 10 17 5 0 7 5 3 12 -4 7 -3 8 5 4 6 -4 9 -11 6 -16z m-45 -59 c0 -5
-7 -11 -14 -14 -10 -4 -13 -1 -9 9 6 15 23 19 23 5z m-87 -58 c-3 -7 -6 -13
-8 -13 -2 0 -5 6 -8 13 -3 8 1 14 8 14 7 0 11 -6 8 -14z m-8 -123 c3 -6 -1 -7
-9 -4 -18 7 -21 14 -7 14 6 0 13 -4 16 -10z"/>
<path d="M3510 1730 c0 -5 5 -10 11 -10 5 0 7 5 4 10 -3 6 -8 10 -11 10 -2 0
-4 -4 -4 -10z"/>
<path d="M880 1709 c0 -5 5 -7 10 -4 6 3 10 8 10 11 0 2 -4 4 -10 4 -5 0 -10
-5 -10 -11z"/>
<path d="M1000 1700 c0 -5 5 -10 11 -10 5 0 7 5 4 10 -3 6 -8 10 -11 10 -2 0
-4 -4 -4 -10z"/>
<path d="M795 1690 c-3 -5 -1 -10 4 -10 6 0 11 5 11 10 0 6 -2 10 -4 10 -3 0
-8 -4 -11 -10z"/>
<path d="M1050 1650 c-8 -5 -12 -11 -9 -14 2 -3 11 -1 19 4 8 5 12 11 9 14 -2
3 -11 1 -19 -4z"/>
<path d="M695 1640 c3 -5 8 -10 11 -10 2 0 4 5 4 10 0 6 -5 10 -11 10 -5 0 -7
-4 -4 -10z"/>
<path d="M3568 1643 c7 -3 16 -2 19 1 4 3 -2 6 -13 5 -11 0 -14 -3 -6 -6z"/>
<path d="M770 1603 c0 -21 3 -24 9 -13 6 8 7 18 4 24 -3 5 -1 6 5 2 6 -3 13
-2 17 4 3 5 -3 10 -14 10 -16 0 -21 -6 -21 -27z"/>
<path d="M707 1593 c-4 -3 -7 -11 -7 -17 0 -6 5 -5 12 2 6 6 9 14 7 17 -3 3
-9 2 -12 -2z"/>
<path d="M672 1558 c2 -6 10 -14 16 -16 7 -2 10 2 6 12 -7 18 -28 22 -22 4z"/>
<path d="M1426 1154 c-4 -15 -10 -24 -13 -21 -5 6 -33 -17 -33 -27 0 -2 13 2
29 10 28 14 47 49 31 59 -4 3 -11 -7 -14 -21z"/>
<path d="M1223 605 c0 -8 4 -12 9 -9 5 3 6 10 3 15 -9 13 -12 11 -12 -6z"/>
<path d="M1034 589 c-4 -8 -3 -10 4 -5 7 4 12 1 12 -10 0 -11 -6 -15 -19 -11
-15 3 -19 0 -18 -14 1 -11 5 -19 10 -19 4 0 5 -6 2 -12 -4 -7 1 -4 9 6 9 11
16 23 16 27 0 4 6 9 13 11 11 2 10 7 -3 21 -14 14 -20 15 -26 6z"/>
<path d="M1200 546 c0 -2 7 -7 16 -10 8 -3 12 -2 9 4 -6 10 -25 14 -25 6z"/>
<path d="M1050 460 c0 -5 7 -7 15 -4 8 4 15 8 15 10 0 2 -7 4 -15 4 -8 0 -15
-4 -15 -10z"/>
<path d="M1054 442 c-13 -8 -15 -44 -2 -36 4 3 8 12 8 20 0 8 5 12 10 9 6 -3
10 -1 10 4 0 13 -10 14 -26 3z"/>
</g>
</svg>
